<svg xmlns="http://www.w3.org/2000/svg" width="undefined" height="undefined" viewBox="0 0 24 24">
    <path fill="currentColor" d="M5 18.77v-1h1.615V9.845q0-1.96 1.24-3.447Q9.097 4.912 11 4.546V3h2v1.546q1.904.366 3.144 1.853q1.24 1.488 1.24 3.447v7.923H19v1H5Zm7 2.615q-.671 0-1.143-.472q-.472-.473-.472-1.144h3.23q0 .671-.472 1.144q-.472.472-1.143.472ZM3.23 9.827q0-2.192.979-4.03q.978-1.837 2.622-3.04l.579.812Q5.967 4.631 5.099 6.258q-.868 1.627-.868 3.569h-1Zm16.54 0q0-1.942-.869-3.57q-.868-1.626-2.31-2.688l.578-.811q1.644 1.202 2.622 3.04q.978 1.837.978 4.029h-1Z"/>
</svg>